<svg xmlns="http://www.w3.org/2000/svg" xmlns:xlink="http://www.w3.org/1999/xlink" width="120" height="120" viewBox="0 0 120 120" fill="none">
<rect  x="13" y="17.829986572265625" width="94" height="89.16567993164062" rx="10"    fill="#CCCCCC" fill-opacity="0">
</rect>
<path   fill="rgba(0, 0, 0, 1)"  d="M23 13.83L97 13.83C104.732 13.83 111 20.098 111 27.83L111 96.9957C111 104.728 104.732 110.996 97 110.996L23 110.996C15.268 110.996 9 104.728 9 96.9957L9 27.83C9 20.098 15.268 13.83 23 13.83ZM23 21.83C19.6863 21.83 17 24.5163 17 27.83L17 96.9957C17 100.309 19.6863 102.996 23 102.996L97 102.996C100.314 102.996 103 100.309 103 96.9957L103 27.83C103 24.5163 100.314 21.83 97 21.83L23 21.83Z">
</path>
<rect  x="31.2099609375" y="35.230010986328125" width="57.57501220703125" height="2.685699462890625" rx="1.3428497314453125"    fill="#CCCCCC" fill-opacity="0">
</rect>
<path   fill="rgba(0, 0, 0, 1)"  d="M32.5528 32.23L87.4421 32.23C89.8406 32.23 91.785 34.1744 91.785 36.5729C91.785 38.9714 89.8406 40.9157 87.4421 40.9157L32.5528 40.9157C30.1543 40.9157 28.21 38.9714 28.21 36.5729Q28.21 35.6913 28.5525 34.8815Q28.8823 34.1016 29.482 33.502Q30.0816 32.9024 30.8615 32.5725Q31.6713 32.23 32.5528 32.23ZM32.5528 38.23Q33.2392 38.23 33.7246 37.7447Q34.21 37.2593 34.21 36.5729C34.21 35.6576 33.468 34.9157 32.5528 34.9157L87.4421 34.9157C86.5269 34.9157 85.785 35.6576 85.785 36.5729C85.785 37.4881 86.5269 38.23 87.4421 38.23L32.5528 38.23Z">
</path>
<rect  x="31.2099609375" y="51.8800048828125" width="57.57501220703125" height="2.685699462890625" rx="1.3428497314453125"    fill="#CCCCCC" fill-opacity="0">
</rect>
<path   fill="rgba(0, 0, 0, 1)"  d="M32.5528 48.88L87.4421 48.88C89.8406 48.88 91.785 50.8244 91.785 53.2229C91.785 55.6214 89.8406 57.5657 87.4421 57.5657L32.5528 57.5657C30.1543 57.5657 28.21 55.6214 28.21 53.2229Q28.21 52.3413 28.5525 51.5315Q28.8823 50.7516 29.482 50.152Q30.0816 49.5524 30.8615 49.2225Q31.6713 48.88 32.5528 48.88ZM32.5528 54.88Q33.2392 54.88 33.7246 54.3946Q34.21 53.9093 34.21 53.2229C34.21 52.3076 33.468 51.5657 32.5528 51.5657L87.4421 51.5657C86.5269 51.5657 85.785 52.3076 85.785 53.2229C85.785 54.1381 86.5269 54.88 87.4421 54.88L32.5528 54.88Z">
</path>
<rect  x="31.2099609375" y="68.52999877929688" width="25" height="2.685699462890625" rx="1.3428497314453125"    fill="#CCCCCC" fill-opacity="0">
</rect>
<path   fill="rgba(0, 0, 0, 1)"  d="M32.5528 65.53L54.8671 65.53C57.2656 65.53 59.21 67.4743 59.21 69.8729C59.21 72.2714 57.2656 74.2157 54.8671 74.2157L32.5528 74.2157C30.1543 74.2157 28.21 72.2714 28.21 69.8729Q28.21 68.9913 28.5525 68.1815Q28.8823 67.4016 29.482 66.802Q30.0816 66.2024 30.8615 65.8725Q31.6713 65.53 32.5528 65.53ZM32.5528 71.53Q33.2392 71.53 33.7246 71.0446Q34.21 70.5593 34.21 69.8729C34.21 68.9576 33.468 68.2157 32.5528 68.2157L54.8671 68.2157C53.9519 68.2157 53.21 68.9576 53.21 69.8729C53.21 70.7881 53.9519 71.53 54.8671 71.53L32.5528 71.53Z">
</path>
<path d="M85 72.5C85 79.4036 79.4036 85 72.5 85C65.5964 85 60 79.4036 60 72.5C60 65.5964 65.5964 60 72.5 60C79.4036 60 85 65.5964 85 72.5ZM66 72.5C66 76.0899 68.9101 79 72.5 79C76.0899 79 79 76.0899 79 72.5C79 68.9101 76.0899 66 72.5 66C68.9101 66 66 68.9101 66 72.5Z" fill-rule="evenodd"  fill="#000000" >
</path>
<path   fill="rgba(0, 0, 0, 1)"  d="M83.2044 78.9652L94.0569 90.722L89.6481 94.7917L78.7956 83.0348L83.2044 78.9652ZM89.6481 94.7917C88.5243 93.5742 88.6002 91.6763 89.8176 90.5524C91.0351 89.4286 92.9331 89.5046 94.0569 90.722C95.1807 91.9395 95.1048 93.8375 93.8873 94.9613C92.6699 96.0851 90.7719 96.0092 89.6481 94.7917Z">
</path>
</svg>
